<svg id="visual" viewBox="0 0 960 540" width="960" height="540" xmlns="http://www.w3.org/2000/svg" xmlns:xlink="http://www.w3.org/1999/xlink" version="1.1"><rect x="0" y="0" width="960" height="540" fill="#f9fcff"></rect><path d="M0 149L14.5 150.2C29 151.3 58 153.7 87.2 157.5C116.3 161.3 145.7 166.7 174.8 170C204 173.3 233 174.7 262 173.3C291 172 320 168 349 163C378 158 407 152 436.2 154.7C465.3 157.3 494.7 168.7 523.8 173.5C553 178.3 582 176.7 611 174.7C640 172.7 669 170.3 698 165.7C727 161 756 154 785.2 154.3C814.3 154.7 843.7 162.3 872.8 163.2C902 164 931 158 945.5 155L960 152L960 0L945.5 0C931 0 902 0 872.8 0C843.7 0 814.3 0 785.2 0C756 0 727 0 698 0C669 0 640 0 611 0C582 0 553 0 523.8 0C494.7 0 465.3 0 436.2 0C407 0 378 0 349 0C320 0 291 0 262 0C233 0 204 0 174.8 0C145.7 0 116.3 0 87.2 0C58 0 29 0 14.5 0L0 0Z" fill="#fa7268"></path><path d="M0 125L14.5 128.8C29 132.7 58 140.3 87.2 139.5C116.3 138.7 145.7 129.3 174.8 128.8C204 128.3 233 136.7 262 138.5C291 140.3 320 135.7 349 132.5C378 129.3 407 127.7 436.2 128.5C465.3 129.3 494.7 132.7 523.8 133.3C553 134 582 132 611 129C640 126 669 122 698 122.7C727 123.3 756 128.7 785.2 130.5C814.3 132.3 843.7 130.7 872.8 132.7C902 134.7 931 140.3 945.5 143.2L960 146L960 0L945.5 0C931 0 902 0 872.8 0C843.7 0 814.3 0 785.2 0C756 0 727 0 698 0C669 0 640 0 611 0C582 0 553 0 523.8 0C494.7 0 465.3 0 436.2 0C407 0 378 0 349 0C320 0 291 0 262 0C233 0 204 0 174.8 0C145.7 0 116.3 0 87.2 0C58 0 29 0 14.5 0L0 0Z" fill="#ef5f67"></path><path d="M0 114L14.5 114C29 114 58 114 87.2 114C116.3 114 145.7 114 174.8 114C204 114 233 114 262 111.7C291 109.3 320 104.7 349 105.2C378 105.7 407 111.3 436.2 112C465.3 112.7 494.7 108.3 523.8 107.2C553 106 582 108 611 107.5C640 107 669 104 698 103.7C727 103.3 756 105.7 785.2 105.5C814.3 105.3 843.7 102.7 872.8 101C902 99.3 931 98.7 945.5 98.3L960 98L960 0L945.5 0C931 0 902 0 872.8 0C843.7 0 814.3 0 785.2 0C756 0 727 0 698 0C669 0 640 0 611 0C582 0 553 0 523.8 0C494.7 0 465.3 0 436.2 0C407 0 378 0 349 0C320 0 291 0 262 0C233 0 204 0 174.8 0C145.7 0 116.3 0 87.2 0C58 0 29 0 14.5 0L0 0Z" fill="#e34c67"></path><path d="M0 85L14.5 83.3C29 81.7 58 78.3 87.2 74.7C116.3 71 145.7 67 174.8 68.5C204 70 233 77 262 78C291 79 320 74 349 71.7C378 69.3 407 69.7 436.2 72C465.3 74.3 494.7 78.7 523.8 79.8C553 81 582 79 611 76.3C640 73.7 669 70.3 698 70.3C727 70.3 756 73.7 785.2 74.2C814.3 74.7 843.7 72.3 872.8 71.8C902 71.3 931 72.7 945.5 73.3L960 74L960 0L945.5 0C931 0 902 0 872.8 0C843.7 0 814.3 0 785.2 0C756 0 727 0 698 0C669 0 640 0 611 0C582 0 553 0 523.8 0C494.7 0 465.3 0 436.2 0C407 0 378 0 349 0C320 0 291 0 262 0C233 0 204 0 174.8 0C145.7 0 116.3 0 87.2 0C58 0 29 0 14.5 0L0 0Z" fill="#d53867"></path><path d="M0 50L14.5 49.5C29 49 58 48 87.2 47.7C116.3 47.3 145.7 47.7 174.8 47.8C204 48 233 48 262 46.2C291 44.3 320 40.7 349 40.7C378 40.7 407 44.3 436.2 45.7C465.3 47 494.7 46 523.8 45.2C553 44.3 582 43.7 611 42.2C640 40.7 669 38.3 698 37.5C727 36.7 756 37.3 785.2 39.7C814.3 42 843.7 46 872.8 46C902 46 931 42 945.5 40L960 38L960 0L945.5 0C931 0 902 0 872.8 0C843.7 0 814.3 0 785.2 0C756 0 727 0 698 0C669 0 640 0 611 0C582 0 553 0 523.8 0C494.7 0 465.3 0 436.2 0C407 0 378 0 349 0C320 0 291 0 262 0C233 0 204 0 174.8 0C145.7 0 116.3 0 87.2 0C58 0 29 0 14.5 0L0 0Z" fill="#c62368"></path></svg>